<svg width="87" height="87" viewBox="0 0 87 87" fill="none" xmlns="http://www.w3.org/2000/svg">
<g id="ant-design:cloud-upload-outlined">
<path id="Vector" d="M44.0255 39.2114C43.9631 39.1317 43.8834 39.0672 43.7923 39.0228C43.7013 38.9785 43.6014 38.9554 43.5001 38.9554C43.3988 38.9554 43.2989 38.9785 43.2079 39.0228C43.1168 39.0672 43.0371 39.1317 42.9747 39.2114L33.6336 51.0295C33.5566 51.1279 33.5088 51.2459 33.4957 51.3701C33.4826 51.4943 33.5048 51.6197 33.5596 51.732C33.6144 51.8442 33.6997 51.9387 33.8057 52.0048C33.9117 52.0708 34.0341 52.1057 34.159 52.1054H40.3225V72.3221C40.3225 72.6891 40.6227 72.9893 40.9897 72.9893H45.9938C46.3608 72.9893 46.661 72.6891 46.661 72.3221V52.1138H52.8411C53.3999 52.1138 53.7085 51.4716 53.3666 51.0379L44.0255 39.2114Z" fill="#001F3F"/>
<path id="Vector_2" d="M68.4706 31.5134C64.6508 21.4384 54.9178 14.2742 43.5167 14.2742C32.1156 14.2742 22.3826 21.4301 18.5627 31.5051C11.4152 33.3816 6.1358 39.8953 6.1358 47.6351C6.1358 56.851 13.6003 64.3155 22.8079 64.3155H26.1523C26.5193 64.3155 26.8196 64.0153 26.8196 63.6483V58.6442C26.8196 58.2772 26.5193 57.9769 26.1523 57.9769H22.8079C19.9973 57.9769 17.3534 56.8593 15.3851 54.8327C13.4252 52.8143 12.3826 50.0954 12.4744 47.2764C12.5494 45.0746 13.3001 43.0062 14.6595 41.2631C16.0523 39.4867 18.0039 38.1939 20.1724 37.6185L23.3333 36.7928L24.4926 33.7402C25.2099 31.8387 26.2107 30.0622 27.4701 28.4525C28.7134 26.8571 30.1861 25.4547 31.8404 24.2908C35.2682 21.8805 39.3049 20.6044 43.5167 20.6044C47.7285 20.6044 51.7652 21.8805 55.193 24.2908C56.8527 25.4584 58.3206 26.8596 59.5633 28.4525C60.8226 30.0622 61.8235 31.847 62.5407 33.7402L63.6917 36.7844L66.8443 37.6185C71.3647 38.8361 74.5256 42.9479 74.5256 47.6351C74.5256 50.3957 73.4497 52.9978 71.4981 54.9494C70.541 55.9121 69.4025 56.6754 68.1484 57.1951C66.8943 57.7148 65.5496 57.9805 64.1921 57.9769H60.8477C60.4807 57.9769 60.1805 58.2772 60.1805 58.6442V63.6483C60.1805 64.0153 60.4807 64.3155 60.8477 64.3155H64.1921C73.3997 64.3155 80.8642 56.851 80.8642 47.6351C80.8642 39.9037 75.6015 33.3983 68.4706 31.5134Z" fill="#001F3F"/>
</g>
</svg>
